<svg width="71" height="71" viewBox="0 0 71 71" fill="none" xmlns="http://www.w3.org/2000/svg">
<g clip-path="url(#clip0_3915_46666)">
<rect width="70.07" height="70.07" rx="24" fill="#F59F0A"/>
<path d="M24.0237 1H46.0456C58.7607 1 69.0684 11.3077 69.0684 24.0228V46.0446C69.0684 58.7598 58.7607 69.0674 46.0456 69.0674H24.0237C11.3086 69.0674 1.00094 58.7598 1.00094 46.0446V24.0228C1.00094 11.3077 11.3086 1 24.0237 1Z" stroke="white" stroke-opacity="0.1" stroke-width="2.002"/>
<path d="M20.0195 36.4673C20.0195 35.9553 20.2172 35.4642 20.5693 35.1023C20.9212 34.7402 21.3986 34.5368 21.8964 34.5368H25.6501C26.1479 34.5368 26.6253 34.7402 26.9772 35.1023C27.3293 35.4642 27.527 35.9553 27.527 36.4673V46.1197C27.527 46.6317 27.3293 47.1228 26.9772 47.4847C26.6253 47.8468 26.1479 48.0502 25.6501 48.0502H21.8964C21.3986 48.0502 20.9212 47.8468 20.5693 47.4847C20.2172 47.1228 20.0195 46.6317 20.0195 46.1197V36.4673ZM31.2807 28.7454C31.2807 28.2334 31.4784 27.7424 31.8304 27.3803C32.1824 27.0183 32.6598 26.8149 33.1575 26.8149H36.9113C37.4091 26.8149 37.8864 27.0183 38.2384 27.3803C38.5904 27.7424 38.7881 28.2334 38.7881 28.7454V46.1197C38.7881 46.6317 38.5904 47.1228 38.2384 47.4847C37.8864 47.8468 37.4091 48.0502 36.9113 48.0502H33.1575C32.6598 48.0502 32.1824 47.8468 31.8304 47.4847C31.4784 47.1228 31.2807 46.6317 31.2807 46.1197V28.7454ZM42.5418 22.9539C42.5418 22.4419 42.7395 21.9509 43.0916 21.5889C43.4435 21.2268 43.9209 21.0234 44.4187 21.0234H48.1724C48.6702 21.0234 49.1476 21.2268 49.4995 21.5889C49.8516 21.9509 50.0493 22.4419 50.0493 22.9539V46.1197C50.0493 46.6317 49.8516 47.1228 49.4995 47.4847C49.1476 47.8468 48.6702 48.0502 48.1724 48.0502H44.4187C43.9209 48.0502 43.4435 47.8468 43.0916 47.4847C42.7395 47.1228 42.5418 46.6317 42.5418 46.1197V22.9539Z" fill="#333333"/>
</g>
<defs>
<clipPath id="clip0_3915_46666">
<rect width="70.07" height="70.07" rx="24" fill="white"/>
</clipPath>
</defs>
</svg>
