<svg width="71" height="71" viewBox="0 0 71 71" fill="none" xmlns="http://www.w3.org/2000/svg">
<path d="M24.0247 0H46.0465C59.3145 0 70.0703 10.7558 70.0703 24.0238V46.0456C70.0703 59.3136 59.3145 70.0694 46.0465 70.0694H24.0247C10.7567 70.0694 0.000907898 59.3136 0.000907898 46.0456V24.0238C0.000907898 10.7558 10.7567 0 24.0247 0Z" fill="#141414" fill-opacity="0.4"/>
<path d="M24.0257 1H46.0475C58.7627 1 69.0703 11.3077 69.0703 24.0228V46.0446C69.0703 58.7598 58.7627 69.0674 46.0475 69.0674H24.0257C11.3106 69.0674 1.00289 58.7598 1.00289 46.0446V24.0228C1.00289 11.3077 11.3106 1 24.0257 1Z" fill="#F59F0A" stroke="white" stroke-opacity="0.1" stroke-width="2.002"/>
<path d="M40.374 26.4288C40.374 27.8624 39.8115 29.2373 38.8103 30.251C37.8091 31.2647 36.4513 31.8341 35.0354 31.8341C33.6195 31.8341 32.2616 31.2647 31.2605 30.251C30.2593 29.2373 29.6968 27.8624 29.6968 26.4288C29.6968 24.9952 30.2593 23.6203 31.2605 22.6066C32.2616 21.5929 33.6195 21.0234 35.0354 21.0234C36.4513 21.0234 37.8091 21.5929 38.8103 22.6066C39.8115 23.6203 40.374 24.9952 40.374 26.4288ZM49.2717 30.0324C49.2717 30.9881 48.8967 31.9047 48.2293 32.5805C47.5618 33.2563 46.6566 33.6359 45.7127 33.6359C44.7687 33.6359 43.8634 33.2563 43.196 32.5805C42.5285 31.9047 42.1535 30.9881 42.1535 30.0324C42.1535 29.0766 42.5285 28.16 43.196 27.4842C43.8634 26.8085 44.7687 26.4288 45.7127 26.4288C46.6566 26.4288 47.5618 26.8085 48.2293 27.4842C48.8967 28.16 49.2717 29.0766 49.2717 30.0324ZM42.1535 42.6449C42.1535 40.7334 41.4036 38.9002 40.0687 37.5486C38.7338 36.1971 36.9233 35.4377 35.0354 35.4377C33.1475 35.4377 31.337 36.1971 30.0021 37.5486C28.6672 38.9002 27.9172 40.7334 27.9172 42.6449V48.0502H42.1535V42.6449ZM27.9172 30.0324C27.9172 30.9881 27.5423 31.9047 26.8748 32.5805C26.2074 33.2563 25.3021 33.6359 24.3581 33.6359C23.4142 33.6359 22.509 33.2563 21.8415 32.5805C21.1741 31.9047 20.7991 30.9881 20.7991 30.0324C20.7991 29.0766 21.1741 28.16 21.8415 27.4842C22.509 26.8085 23.4142 26.4288 24.3581 26.4288C25.3021 26.4288 26.2074 26.8085 26.8748 27.4842C27.5423 28.16 27.9172 29.0766 27.9172 30.0324ZM45.7127 48.0502V42.6449C45.7152 40.8129 45.2558 39.0108 44.378 37.4089C45.1669 37.2045 45.9915 37.1851 46.789 37.3525C47.5864 37.5199 48.3356 37.8694 48.9793 38.3744C49.623 38.8795 50.1443 39.5268 50.5034 40.2669C50.8625 41.0069 51.0499 41.8203 51.0513 42.6449V48.0502H45.7127ZM25.6928 37.4089C24.8151 39.0108 24.3556 40.8129 24.3581 42.6449V48.0502H19.0195V42.6449C19.0192 41.8197 19.2054 41.0054 19.564 40.2644C19.9225 39.5235 20.4438 38.8754 21.0881 38.3699C21.7322 37.8645 22.4822 37.5152 23.2804 37.3485C24.0784 37.1819 24.9038 37.2026 25.6928 37.4089Z" fill="#333333"/>
</svg>
